<?xml version="1.0" encoding="iso-8859-1"?>
<!-- Generator: Adobe Illustrator 18.0.0, SVG Export Plug-In . SVG Version: 6.00 Build 0)  -->
<!DOCTYPE svg PUBLIC "-//W3C//DTD SVG 1.1//EN" "http://www.w3.org/Graphics/SVG/1.1/DTD/svg11.dtd">
<svg xmlns="http://www.w3.org/2000/svg" xmlns:xlink="http://www.w3.org/1999/xlink" version="1.1" id="Capa_1" x="0px" y="0px" viewBox="0 0 60 60" style="enable-background:new 0 0 60 60;" xml:space="preserve" width="512px" height="512px">
<g>
	<path d="M17.67,7h2.877l-3.256,28H14.67v2h2.388l-0.116,1H14.46v2h2.249l-0.116,1h-2.342v2h2.109l-0.116,1h-2.203v2h1.971l-0.116,1   h-2.063v2h1.831l-0.452,3.885c-0.063,0.548,0.329,1.045,0.878,1.108C16.128,53.998,16.167,54,16.205,54   c0.501,0,0.933-0.375,0.992-0.885L17.676,49h2.156v-2h-1.924l0.116-1h2.016v-2h-1.784l0.116-1h1.877v-2h-1.645l0.116-1h1.738v-2   h-1.505l0.116-1h1.599v-2h-1.366L22.56,7h3.11V2h1V0h-1h-8h-1v2h1V7z" fill="#3AB3DF"/>
	<path d="M54.769,16.652c-0.818-3.094-3.213-6.048-6.742-8.317C45.652,6.808,42.722,6,39.555,6c-2.548,0-5.167,0.526-7.573,1.521   l-0.192,0.082c-0.095,0.041-0.188,0.082-0.281,0.114c-0.466,0.162-0.822,0.3-1.113,0.413c-0.521,0.202-0.712,0.272-0.903,0.272   c-0.264,0-0.706-0.117-1.622-0.387L27.67,7.959V9h-3.329L21.55,33h1.12l-0.21,6l-0.209,3l-0.21,3l-0.209,3v3h-2.375l-0.273,2.347   C19.007,54.859,17.726,56,16.205,56c-0.119,0-0.242-0.007-0.364-0.022c-0.778-0.09-1.491-0.487-1.989-1.116   c-0.496-0.628-0.72-1.411-0.627-2.207L13.417,51h-1.585l0.209-6l0.21-3l0.209-3l0.21-3v-3h2.84l2.791-24H15.67V6.844   c-0.577-0.093-1.17-0.063-1.73,0.121l-0.073,0.024C8.136,9.02,3.057,15.74,4.628,26.179L4.661,26.4   c1.527,10.148,2.732,18.164,6.671,27.674l0.119,0.289C12.316,56.472,13.765,60,16.288,60h0.203l0.187-0.079   c2.313-0.979,3.18-3.202,3.813-4.824c0.427-1.096,0.808-2.212,1.175-3.291c0.483-1.418,0.955-2.793,1.516-4.113   c1.256,2.548,3.866,6.796,7.311,6.796c0.001,0,0.001,0,0.001,0c0.408,0,0.818-0.061,1.219-0.179   c2.255-0.668,3.385-2.996,4.21-4.695l0.066-0.137c0.173-0.356,0.394-0.769,0.631-1.216c0.239-0.449,0.5-0.947,0.756-1.459   c0.25,0.806,0.468,1.635,0.682,2.457c0.239,0.914,0.486,1.859,0.772,2.741c1.259,3.878,2.898,7.842,5.519,7.842   c1.23,0,2.321-0.864,3.336-2.643c1.96-3.435,2.8-7.261,3.612-10.96l0.286-1.294c0.435-1.938,0.941-3.884,1.433-5.766   C54.897,31.96,56.844,24.494,54.769,16.652z M34.853,47.322c-0.25,0.471-0.48,0.904-0.664,1.28l-0.066,0.138   c-0.7,1.441-1.57,3.234-2.979,3.651c-0.219,0.065-0.432,0.097-0.65,0.097c-2.335,0-4.733-3.717-6.079-6.9l-0.088-0.211   c0.11-0.196,0.215-0.373,0.32-0.546c0.108-0.175,0.218-0.35,0.333-0.522c0.022-0.033,0.045-0.072,0.068-0.104   c0.593-0.867,1.242-1.597,1.92-2.19c1.259-1.101,2.622-1.711,3.942-1.711c0.896,0,1.803,0.27,2.693,0.8   c0.322,0.192,0.614,0.411,0.887,0.646c0.095,0.082,0.182,0.177,0.273,0.266c0.163,0.157,0.323,0.317,0.469,0.489   c0.127,0.15,0.247,0.313,0.365,0.479c0.085,0.118,0.171,0.235,0.25,0.357c0.157,0.245,0.308,0.505,0.452,0.783   c0.017,0.033,0.035,0.065,0.052,0.098C35.96,45.244,35.376,46.341,34.853,47.322z" fill="#3AB3DF"/>
</g>
<g>
</g>
<g>
</g>
<g>
</g>
<g>
</g>
<g>
</g>
<g>
</g>
<g>
</g>
<g>
</g>
<g>
</g>
<g>
</g>
<g>
</g>
<g>
</g>
<g>
</g>
<g>
</g>
<g>
</g>
</svg>
