<?xml version="1.0"?>
<svg xmlns="http://www.w3.org/2000/svg" id="Capa_1" enable-background="new 0 0 373.625 373.625" height="512px" viewBox="0 0 373.625 373.625" width="512px"><path d="m242.627 271.274c-20.296-12.683-36.762-28.596-48.939-47.291-11.536-17.707-13.324-28.389-13.484-29.55-.047-.314-.067-.634-.067-.947v-113.423c0-3.149 2.202-5.865 5.277-6.525l93.407-20.016c.921-.193 1.875-.193 2.796 0l18.621 3.99v-4.137c0-52.628-70.402-53.369-73.398-53.375-41.753 0-66.713 22.878-68.507 24.579-4.43 5.271-36.395 42.14-64.924 42.14-3.683 0-6.672-2.982-6.672-6.672s2.989-6.672 6.672-6.672c16.72 0 39.138-20.396 50.506-32.652-9.266-6.999-31.551-20.723-63.849-20.723-2.99.007-73.392.747-73.392 53.375v16.953c0 31.852 8.613 61.962 24.9 87.055 1.128 1.741 2.302 3.476 3.523 5.211 11.055 15.692 14.431 35.108 9.267 53.255-5.017 17.634-11.002 43.114-11.002 64.364-.033.927-2.415 64.217 24.86 92.993.354.374.801.494 1.328.367.327-.087.901-.327 1.101-1.047 9.154-32.612 42.894-139.016 92.806-139.016s83.659 106.404 92.807 139.016c.2.721.781.967 1.108 1.048.52.133.974.007 1.321-.367 20.923-22.077 24.359-65.005 24.86-82.632z" fill="#3AB3DF"/><path d="m355.556 216.704c8.754-13.444 10.982-21.984 11.396-23.839v-107.398l-61.442-13.17-25.293-5.418-86.735 18.588v107.418c.38 1.735 2.582 10.295 11.396 23.819 11.109 17.06 26.194 31.612 44.829 43.261l30.511 19.062 30.517-19.062c18.634-11.649 33.712-26.207 44.821-43.261zm-51.901 31.945-20.316 10.789c-.974.514-2.048.774-3.122.774s-2.148-.26-3.122-.774l-19.902-10.548c-.14-.08-.28-.153-.414-.24-16.98-10.622-30.684-23.812-40.719-39.224-5.458-8.387-7.9-14.345-8.867-17.147-.24-.701-.367-1.434-.367-2.175v-90.011c0-3.183 2.242-5.918 5.364-6.538l66.719-13.344c.861-.167 1.755-.167 2.615 0l66.719 13.344c3.116.627 5.364 3.363 5.364 6.538v90.011c0 .741-.127 1.475-.367 2.175-.967 2.809-3.403 8.76-8.867 17.14-10.027 15.412-23.731 28.609-40.718 39.23z" fill="#3AB3DF"/><path d="m220.169 105.557v83.366c.894 2.315 2.929 6.859 7.072 13.217 8.927 13.711 21.177 25.507 36.409 35.074l16.566 8.774 16.78-8.894c14.912-9.341 27.235-21.19 36.202-34.961 4.143-6.352 6.172-10.902 7.066-13.21v-83.366l-60.047-12.009zm97.751 29.503c2.796 2.395 3.122 6.605.721 9.401l-40.032 46.703c-1.208 1.414-2.949 2.255-4.81 2.329-.087.007-.173.007-.26.007-1.768 0-3.463-.701-4.717-1.955l-20.016-20.016c-2.609-2.609-2.609-6.825 0-9.434 2.602-2.609 6.832-2.609 9.434 0l14.925 14.918 35.341-41.232c2.401-2.81 6.611-3.13 9.414-.721z" fill="#3AB3DF"/></svg>
