<?xml version="1.0"?>
<svg xmlns="http://www.w3.org/2000/svg" id="Capa_1" enable-background="new 0 0 406.988 406.988" height="512px" viewBox="0 0 406.988 406.988" width="512px"><path d="m276.885 0c-38.003 0-63.403 16.593-73.391 24.539-9.981-7.939-35.381-24.539-73.391-24.539-29.997 0-86.735 13.944-86.735 66.719v16.953c0 34.44 9.354 67.06 27.055 94.328 1.221 1.868 2.482 3.75 3.803 5.618 3.85 5.464 7.966 11.876 9.334 18.001.681 3.049 3.389 5.211 6.512 5.211h13.344v20.016c0 3.69 2.989 6.672 6.672 6.672h46.703v20.016h93.407v-20.016h46.703c3.683 0 6.672-2.982 6.672-6.672v-20.016h13.344c3.122 0 5.831-2.162 6.512-5.211 1.374-6.125 5.491-12.537 9.334-18.001 1.321-1.868 2.589-3.75 3.803-5.618 17.701-27.268 27.055-59.887 27.055-94.328v-16.953c-.001-52.775-56.739-66.719-86.736-66.719zm13.344 220.174h-46.703-80.063-46.703v-13.344h173.47z" fill="#3AB3DF"/><path d="m156.789 320.252h93.407v13.344h-93.407z" fill="#3AB3DF"/><path d="m156.789 293.565h93.407v13.344h-93.407z" fill="#3AB3DF"/><path d="m156.789 346.94h93.407v13.344h-93.407z" fill="#3AB3DF"/><path d="m156.789 266.877h93.407v13.344h-93.407z" fill="#3AB3DF"/><path d="m177.507 403.298c1.128 2.262 3.443 3.69 5.971 3.69h40.032c2.529 0 4.837-1.428 5.971-3.69l14.838-29.67h-81.639z" fill="#3AB3DF"/></svg>
