<?xml version="1.0"?>
<svg xmlns="http://www.w3.org/2000/svg" id="Capa_1" enable-background="new 0 0 384.21 384.21" height="512px" viewBox="0 0 384.21 384.21" width="512px"><path d="m56.69 272.175-17.3-17.301-28.303 28.309 101.027 101.027 28.309-28.309-70.389-70.383z" fill="#3AB3DF"/><path d="m326.349 213.101c-5.351 8.553-12.817 15.059-21.597 18.815l-25.207 10.802c1.474 3.309 2.335 6.952 2.335 10.809 0 14.718-11.969 26.688-26.688 26.688h-53.375c-3.683 0-6.672-2.982-6.672-6.672s2.989-6.672 6.672-6.672h53.375c7.359 0 13.344-5.985 13.344-13.344s-5.985-13.344-13.344-13.344h-46.703c-.153 0-.28-.08-.434-.087-.454-.027-.881-.14-1.328-.267-.434-.12-.847-.24-1.241-.44-.14-.073-.294-.073-.427-.153l-25.44-15.265c-4.143-2.482-8.894-3.796-13.724-3.796h-37.47c-15.846 0-42.747 27.075-58.233 46.623l58.286 58.279c6.105-3.196 11.369-4.557 11.649-4.624.54-.133 1.088-.2 1.641-.2h93.24c19.956 0 39.077-7.392 53.842-20.816l48.585-44.168c12.23-12.236 29.096-45.349 35.688-58.806-18.878-8.415-34.584-2.85-46.774 16.638z" fill="#3AB3DF"/><path d="m175.824 88.036c3.196 4.67 4.17 10.422 2.689 15.786-2.349 8.487-5.137 20.83-5.131 31.171-.053 1.321-1.214 32.692 13.351 48.532 2.489 2.715 6.252 3.843 9.828 2.996 3.623-.881 6.492-3.676 7.486-7.306 8.567-31.485 21.944-55.217 31.125-55.217 9.174 0 22.551 23.739 31.125 55.224.987 3.623 3.856 6.418 7.479 7.299.794.187 1.588.294 2.375.294 2.796 0 5.511-1.168 7.446-3.276 14.571-15.846 13.417-47.217 13.364-48.258 0-10.622-2.789-22.958-5.137-31.451-1.481-5.364-.5-11.115 2.689-15.786.6-.881 1.181-1.768 1.728-2.642 8.06-12.803 12.323-28.089 12.323-44.208v-7.606c-.002-26.569-27.137-33.588-41.482-33.588-15.039 0-25.907 7.312-31.912 12.743-5.997-5.437-16.873-12.743-31.911-12.743-14.345 0-41.479 7.019-41.479 33.586v7.606c0 16.119 4.263 31.405 12.323 44.208.547.881 1.127 1.769 1.721 2.636z" fill="#3AB3DF"/></svg>
